<?xml version="1.0" encoding="utf-8"?>
<!-- Generator: Adobe Illustrator 23.0.2, SVG Export Plug-In . SVG Version: 6.00 Build 0)  -->
<svg version="1.1" id="Ebene_1" xmlns="http://www.w3.org/2000/svg" xmlns:xlink="http://www.w3.org/1999/xlink" x="0px" y="0px"
	 viewBox="0 0 283.46 283.46" enable-background="new 0 0 283.46 283.46" xml:space="preserve">
<g>
	<path fill="#95C11F" d="M132.14,118.38c5.85,3.75,7.55,11.52,3.8,17.37c-2.4,3.75-6.46,5.79-10.6,5.79c-2.32,0-4.67-0.64-6.77-1.99
		l-39.43-25.27c-6.65-4.26-10.62-11.52-10.62-19.43s3.97-15.17,10.63-19.43l39.43-25.27c5.85-3.75,13.63-2.04,17.37,3.8
		c3.75,5.85,2.05,13.63-3.8,17.37l-36.7,23.52L132.14,118.38z M205.02,203.91l-39.43,25.27c-2.1,1.35-4.45,1.99-6.77,1.99
		c-4.14,0-8.2-2.04-10.6-5.79c-3.75-5.85-2.05-13.63,3.8-17.37l36.7-23.52l-36.7-23.52c-5.85-3.75-7.55-11.52-3.8-17.37
		c3.74-5.85,11.53-7.55,17.37-3.8l39.43,25.27c6.65,4.26,10.62,11.53,10.62,19.43S211.67,199.65,205.02,203.91z"/>
	<path fill="#95C11F" d="M1.37,141.68C1.37,64.31,64.31,1.37,141.68,1.37S282,64.31,282,141.68S219.05,282,141.68,282
		S1.37,219.05,1.37,141.68z M263.93,141.68c0-67.41-54.84-122.25-122.25-122.25S19.43,74.27,19.43,141.68
		s54.84,122.25,122.25,122.25S263.93,209.09,263.93,141.68z"/>
</g>
<g>
</g>
<g>
</g>
<g>
</g>
<g>
</g>
<g>
</g>
<g>
</g>
</svg>
